<svg data-v-423bf9ae="" xmlns="http://www.w3.org/2000/svg" viewBox="0 0 277 90" class="iconLeft"><!----><!----><!----><g data-v-423bf9ae="" id="9331f0fa-9230-4e62-8186-1e30c87c71c0" fill="#041F57" transform="matrix(4.611836967289338,0,0,4.611836967289338,104.5709318947406,-18.80476366470129)"><path d="M3.22 11.49L3.10 11.60Q3.10 13.32 3.32 16.84L3.32 16.84L1.79 17.23L1.55 17.10Q1.65 14.40 1.65 11.61L1.65 11.61L1.52 11.49L-0.03 11.49L-0.10 11.38L0.04 10.97L0.20 10.88L1.54 10.88L1.65 10.73Q1.68 10.12 1.80 9.61Q1.93 9.11 2.10 8.78Q2.27 8.45 2.51 8.20Q2.75 7.95 2.97 7.82Q3.20 7.68 3.47 7.60Q3.73 7.53 3.92 7.51Q4.11 7.49 4.31 7.49L4.31 7.49Q4.45 7.49 4.62 7.52Q4.79 7.55 5.04 7.65Q5.29 7.75 5.54 7.99Q5.78 8.22 5.95 8.57L5.95 8.57L4.97 9.28L4.74 9.18Q4.74 8.72 4.49 8.39Q4.23 8.07 3.98 8.07L3.98 8.07Q3.75 8.07 3.51 8.36Q3.27 8.64 3.18 9.10L3.18 9.10Q3.10 9.49 3.10 10.73L3.10 10.73L3.22 10.86L4.98 10.86L5.07 11.00L4.94 11.36L4.77 11.49L3.22 11.49ZM7.62 7.33L7.80 7.50L7.68 13.86Q7.68 13.95 7.68 14.15Q7.67 14.35 7.67 14.46L7.67 14.46Q7.67 14.79 7.68 15.00Q7.69 15.22 7.72 15.42Q7.75 15.63 7.81 15.74Q7.87 15.86 7.96 15.93Q8.06 16.00 8.20 16.00L8.20 16.00Q8.67 16.00 9.24 15.37L9.24 15.37L9.41 15.37L9.63 15.59Q8.44 17.19 7.35 17.19L7.35 17.19Q7.16 17.19 7.00 17.15Q6.84 17.11 6.72 17.06Q6.60 17.00 6.51 16.90Q6.42 16.80 6.36 16.71Q6.30 16.63 6.26 16.47Q6.22 16.32 6.20 16.21Q6.18 16.11 6.17 15.93Q6.16 15.75 6.16 15.65Q6.16 15.54 6.16 15.35L6.16 15.35Q6.16 14.83 6.19 13.75Q6.21 12.66 6.21 12.08L6.21 12.08Q6.21 10.49 6.20 9.71L6.20 9.71Q6.17 8.63 6.13 8.50L6.13 8.50Q6.11 8.42 6.08 8.35Q6.05 8.29 5.99 8.24Q5.93 8.19 5.89 8.16Q5.84 8.12 5.75 8.10Q5.66 8.07 5.61 8.06Q5.56 8.05 5.43 8.04Q5.31 8.03 5.26 8.02Q5.21 8.02 5.07 8.01Q4.92 8.00 4.87 8.00L4.87 8.00L4.87 7.68L5.04 7.57L7.62 7.33ZM11.44 13.82L11.44 13.82Q11.44 14.13 11.48 14.48Q11.52 14.82 11.63 15.22Q11.75 15.63 11.93 15.94Q12.11 16.25 12.42 16.46Q12.73 16.67 13.12 16.67L13.12 16.67Q13.49 16.67 13.78 16.56Q14.08 16.45 14.27 16.29Q14.46 16.13 14.60 15.85Q14.74 15.57 14.81 15.31Q14.88 15.06 14.92 14.68Q14.96 14.29 14.97 14.02Q14.98 13.75 14.98 13.34L14.98 13.34Q14.98 12.86 14.90 12.44Q14.81 12.02 14.63 11.65Q14.44 11.28 14.10 11.06Q13.75 10.85 13.28 10.85L13.28 10.85Q12.86 10.85 12.53 11.04Q12.20 11.24 12.00 11.54Q11.80 11.84 11.67 12.25Q11.53 12.65 11.48 13.04Q11.44 13.42 11.44 13.82ZM9.63 13.83L9.63 13.83Q9.63 12.30 10.68 11.29Q11.74 10.29 13.36 10.29Q14.99 10.29 15.85 11.05L15.85 11.05Q16.78 11.91 16.78 13.25L16.78 13.25Q16.78 14.10 16.58 14.77Q16.39 15.45 16.04 15.91Q15.70 16.37 15.22 16.67Q14.74 16.97 14.19 17.11Q13.64 17.25 13.00 17.25L13.00 17.25Q11.38 17.25 10.64 16.57L10.64 16.57Q9.63 15.66 9.63 13.83ZM20.17 11.74L20.17 11.74L20.66 15.10L20.79 15.14Q22.55 12.50 23.50 10.61L23.50 10.61L24.25 10.19L24.44 10.21Q25.03 13.17 25.96 15.39L25.96 15.39Q26.03 15.57 26.09 15.57L26.09 15.57Q26.26 15.57 26.37 15.48L26.37 15.48Q27.05 14.94 27.51 14.26Q27.97 13.58 27.97 12.87L27.97 12.87Q27.97 12.17 27.31 11.17L27.31 11.17L27.31 10.99L28.46 10.14L28.68 10.17Q29.39 10.96 29.39 11.67L29.39 11.67Q29.39 12.01 29.28 12.39Q29.16 12.78 28.92 13.18Q28.68 13.59 28.44 13.94Q28.20 14.29 27.83 14.73Q27.45 15.17 27.20 15.45Q26.94 15.72 26.55 16.14L26.55 16.14Q26.52 16.17 26.37 16.33Q26.21 16.50 26.14 16.57Q26.07 16.65 25.91 16.79Q25.76 16.93 25.65 17.00Q25.55 17.07 25.41 17.13Q25.27 17.19 25.16 17.19L25.16 17.19Q24.84 17.19 24.63 16.49L24.63 16.49L23.32 12.39L23.17 12.39Q22.81 13.01 21.83 14.59Q20.85 16.18 20.36 17.06L20.36 17.06L19.50 17.27L19.34 17.19Q19.29 16.27 19.03 14.11L19.03 14.11Q18.86 12.74 18.74 12.30L18.74 12.30Q18.49 11.38 18.03 11.38L18.03 11.38Q17.47 11.38 17.01 11.66L17.01 11.66L16.82 11.39Q17.14 11.14 17.35 10.98Q17.57 10.83 17.89 10.63Q18.22 10.42 18.52 10.33Q18.83 10.23 19.11 10.23L19.11 10.23Q19.47 10.23 19.87 10.58L19.87 10.58Q19.91 10.62 19.93 10.66Q19.96 10.70 19.98 10.76Q20.01 10.83 20.03 10.88Q20.04 10.94 20.06 11.05Q20.08 11.16 20.09 11.23Q20.10 11.31 20.13 11.47Q20.15 11.63 20.17 11.74ZM37.08 10.21L37.34 10.27Q37.30 11.01 37.29 11.69Q37.28 12.37 37.28 15.17L37.28 15.17Q37.28 16.72 37.07 17.58L37.07 17.58Q36.89 18.40 36.25 19.03Q35.61 19.67 34.76 20.01Q33.92 20.34 33.05 20.34L33.05 20.34Q32.45 20.34 31.82 20.06Q31.19 19.78 30.82 19.35L30.82 19.35L31.66 18.24L31.95 18.24Q32.74 19.64 33.69 19.64L33.69 19.64Q34.26 19.64 34.66 19.39Q35.06 19.13 35.28 18.66Q35.49 18.18 35.59 17.62Q35.68 17.07 35.70 16.33L35.70 16.33L35.56 16.28Q34.93 16.69 34.21 16.97Q33.49 17.25 32.92 17.25L32.92 17.25Q32.66 17.25 32.45 17.20Q32.25 17.15 32.09 17.08Q31.94 17.01 31.82 16.87Q31.71 16.73 31.63 16.61Q31.55 16.50 31.50 16.29Q31.45 16.08 31.42 15.94Q31.39 15.80 31.38 15.53Q31.37 15.27 31.37 15.13Q31.36 14.98 31.36 14.70L31.36 14.70Q31.36 14.65 31.36 14.63L31.36 14.63Q31.36 14.27 31.40 13.55Q31.45 12.82 31.45 12.47L31.45 12.47Q31.45 12.32 31.45 12.25Q31.45 12.19 31.44 12.03Q31.42 11.88 31.40 11.80Q31.38 11.72 31.34 11.59Q31.29 11.47 31.23 11.41Q31.17 11.35 31.06 11.30Q30.96 11.25 30.83 11.25L30.83 11.25Q30.51 11.25 30.02 11.68L30.02 11.68L29.76 11.33Q31.02 10.25 32.06 10.25L32.06 10.25Q32.42 10.25 32.69 10.49L32.69 10.49Q32.82 10.61 32.88 10.86Q32.94 11.11 32.94 11.72L32.94 11.72Q32.94 12.13 32.91 12.93Q32.87 13.74 32.87 14.18L32.87 14.18Q32.87 15.33 33.13 15.78Q33.39 16.24 34.15 16.24L34.15 16.24Q34.52 16.24 34.99 16.03Q35.46 15.83 35.72 15.65L35.72 15.65Q35.81 14.51 35.81 13.07L35.81 13.07Q35.81 11.72 35.68 10.71L35.68 10.71L37.08 10.21Z"></path></g><!----><g data-v-423bf9ae="" id="d9b1202b-0705-40c6-a30d-e15dc5c56ba9" transform="matrix(1.0043197785478157,0,0,1.0043197785478157,-9.095991177569829,-4.021058930719754)" stroke="none" fill="#0015D6"><path d="M63.163 5.283c1.626.171 3.202.587 4.796.926 1.42.301 2.788.76 4.155 1.215 1.193.397 2.358.883 3.509 1.4.858.386 1.701.802 2.525 1.244.855.459 1.704.939 2.525 1.467.79.509 1.585 1.01 2.345 1.56a42.842 42.842 0 013.364 2.709c.077.069.211.106.19.253-.477-.14-.867-.448-1.245-.74-.585-.451-1.243-.761-1.875-1.122-.934-.534-1.897-1.026-2.906-1.388-1.054-.378-2.091-.806-3.19-1.068-1.101-.263-2.195-.563-3.296-.829l-.732-.245c-.104-.086-.218-.146-.359-.135-.007-.016-.019-.02-.035-.012-.395-.157-.785-.328-1.209-.397-.011-.016-.025-.021-.043-.013a.736.736 0 00-.373-.115l-.13-.015-.559-.135c-.012-.017-.027-.021-.046-.013-.402-.236-.871-.244-1.306-.368-.775-.222-1.561-.426-2.378-.44l-.03-.013-.033.004c-.052-.021-.103-.053-.157-.061-.984-.159-1.965-.339-2.953-.467-1.033-.133-2.068-.261-3.112-.277-2.304-.151-4.608-.123-6.912.013-.021.001-.041.018-.062.027-.324-.003-.648-.009-.964.076l-.136.007c-.334-.033-.662.037-.989.075-.758.089-1.523.141-2.267.327l-.03-.004-.027.014a2.215 2.215 0 00-.769.129l-.269.032c-.039-.014-.066-.006-.08.034l.005-.002c-.484.068-.976.084-1.45.216l-.033-.002-.029.017c-.191.019-.383.033-.559.123l-.131.018c-.322.08-.662.096-.961.263-.819.2-1.655.347-2.453.611-1.457.482-2.927.925-4.355 1.505-.966.392-1.925.806-2.869 1.24-.904.415-1.792.875-2.668 1.356a47.99 47.99 0 00-3.961 2.41 47.985 47.985 0 00-3.233 2.387c-.485.394-.963.809-1.454 1.199-.485.385-.937.831-1.399 1.253-.845.772-1.644 1.591-2.434 2.413-.406.422-.807.869-1.188 1.325-.439.525-.889 1.046-1.325 1.574-.627.759-1.195 1.566-1.775 2.363a42.278 42.278 0 00-2.137 3.238 51.148 51.148 0 00-2.192 4.086c-.446.931-.794 1.905-1.272 2.816-.299.57-.339 1.226-.709 1.805a48.364 48.364 0 011.019-3.628 53.637 53.637 0 011.568-4.113c.54-1.279 1.134-2.538 1.828-3.74.446-.772.878-1.553 1.354-2.31a57.9 57.9 0 011.508-2.299 43.8 43.8 0 013.713-4.638 71.07 71.07 0 012.152-2.207c.913-.91 1.883-1.752 2.866-2.575.486-.407.992-.807 1.504-1.191.714-.537 1.453-1.04 2.174-1.566.683-.498 1.442-.889 2.154-1.348a24.503 24.503 0 012.581-1.436c.779-.378 1.525-.832 2.36-1.113.625-.21 1.203-.566 1.825-.804 1.822-.698 3.671-1.323 5.561-1.808a46.95 46.95 0 018.356-1.372c.347-.025.706.005 1.041-.129h6.214c.477.119.963.129 1.451.134.022.01.044.012.067.005.78.115 1.56.225 2.349.269z"></path><path d="M45.212 30.841c-1.029.819-1.928 1.766-2.744 2.793a16.098 16.098 0 00-2.288 3.895c-.788 1.913-1.05 3.903-1 5.962.04 1.673.383 3.274.843 4.872a27.149 27.149 0 001.406 3.769c.384.842.807 1.669 1.27 2.477.451.786.937 1.548 1.446 2.291.9 1.312 1.904 2.55 2.999 3.708a36.651 36.651 0 003.601 3.345c.562.453 1.13.899 1.714 1.318a39.053 39.053 0 002.781 1.828c1.191.709 2.42 1.36 3.686 1.926 1.718.769 3.489 1.403 5.289 1.955.24.073.496.095.744.141 2.978.857 6.027 1.112 9.11 1.062 1.473-.024 2.943.003 4.384.352.41.099.815.244 1.201.415.352.156.672.401.701.825.029.419-.246.691-.561.93-.794.603-1.708.903-2.663 1.144-2.322.586-4.677.709-7.054.584-1.794-.094-3.561-.382-5.331-.679-1.32-.222-2.59-.61-3.886-.913-1.325-.31-2.571-.847-3.874-1.213-.103-.029-.199-.117-.319-.052.019-.125-.059-.13-.155-.13.039.073.088.114.159.127.015.214.225.241.341.358.494.498 1.066.906 1.633 1.306.718.507 1.435 1.024 2.231 1.412.236.115.446.282.678.408a32.567 32.567 0 005.038 2.194c1.979.673 4.013 1.147 6.075 1.509 3.213.564 6.449.582 9.696.512 2.783-.06 5.514-.496 8.247-.958.794-.134 1.574-.324 2.359-.491.086-.018.169-.06.297.005-.357.154-.676.343-1.021.43-.838.212-1.61.618-2.445.82-1.448.35-2.843.884-4.318 1.154-1.16.212-2.296.578-3.466.749-2.455.358-4.906.756-7.39.892-1.944.106-3.887.104-5.831.059-2.442-.056-4.853-.401-7.263-.782-1.388-.22-2.737-.591-4.106-.883-1.331-.284-2.603-.745-3.887-1.162-1.382-.448-2.726-1.014-4.057-1.609a63.6 63.6 0 01-2.63-1.268c-.983-.496-1.932-1.06-2.917-1.555-1.028-.516-1.959-1.173-2.878-1.863a21.575 21.575 0 01-1.619-1.322 34.972 34.972 0 01-2.161-2.145 45.982 45.982 0 01-1.446-1.65 33.481 33.481 0 01-1.932-2.539c-.284-.415-.576-.825-.856-1.243-.335-.714-.867-1.31-1.21-2.02v-.003c-.033-.177-.171-.283-.28-.41v-.003l-.676-1.289c.151.637.203 1.295.511 1.879.383 1.103.762 2.205 1.215 3.286.368.879.844 1.702 1.198 2.584.106.263.259.509.404.755.576.976 1.119 1.975 1.748 2.916a43.49 43.49 0 002.255 3.113c.377.468.774.93 1.141 1.41.341.446.744.863 1.142 1.273.517.534.99 1.114 1.537 1.613.421.385.789.825 1.238 1.179.503.395.911.9 1.445 1.26.174.258.398.457.693.567.689.72 1.512 1.277 2.299 1.876.591.45 1.18.907 1.798 1.319.762.508 1.528 1.011 2.292 1.515.824.543 1.677 1.037 2.523 1.539a46.452 46.452 0 003.506 1.881c1.051.506 2.096 1.032 3.189 1.448.148.056.269.155.397.25.292.217.688.187 1.018.338.206.094.429.148.706.24-.173.103-.284.049-.396.027-1.5-.292-2.962-.722-4.429-1.144a59.468 59.468 0 01-3.91-1.299 55.082 55.082 0 01-3.446-1.378 79.046 79.046 0 01-2.774-1.276c-.924-.454-1.874-.867-2.74-1.437-.151-.1-.304-.212-.499-.218l-.138-.054.003.004-.071-.074.003.002c-.559-.408-1.176-.724-1.761-1.089-1.013-.631-2.005-1.297-3.005-1.949l.002.002c-.027-.068-.085-.095-.149-.114-.665-.488-1.343-.96-1.992-1.469-.62-.486-1.21-1.011-1.815-1.516-1.783-1.49-3.413-3.137-4.947-4.877-.46-.521-.885-1.079-1.33-1.614-.823-.987-1.548-2.044-2.258-3.106a29.223 29.223 0 01-1.113-1.774c-.545-.956-1.099-1.911-1.562-2.904-.459-.984-.918-1.971-1.323-2.984-.584-1.462-1.026-2.967-1.535-4.452-.069-.201-.101-.414-.163-.673-.499.703-.67 1.456-.739 2.24-.161 1.834.195 3.611.568 5.392.342 1.632.854 3.212 1.378 4.787.431 1.293.964 2.552 1.429 3.834.222.614.383 1.249.505 1.893.025.132.081.309-.067.374-.159.07-.265-.084-.36-.201-.792-.974-1.371-2.078-1.977-3.17-.915-1.648-1.693-3.362-2.462-5.077-.664-1.482-1.201-3.021-1.794-4.535.009-.041-.009-.063-.049-.07l-.002-.002c-.092-.705-.375-1.349-.633-2.001l-.089-.294-.035-.118c-.035-.317-.175-.602-.266-.902l-.014-.134c-.016-.101-.024-.203-.05-.301-.433-1.624-.829-3.255-.863-4.949v-1.18c-.035.238-.146.463-.109.704-.199 1.459-.34 2.923-.369 4.397-.067.117-.047.246-.048.37-.016 1.145-.053 2.29-.033 3.434.019 1.041.068 2.083.23 3.115.042.933.269 1.841.385 2.764.111.884.428 1.711.685 2.557.285.937.772 1.79 1.06 2.722.109.353.162.716.119 1.088-.031.272-.187.325-.413.221a2.16 2.16 0 01-.729-.565c-.848-.974-1.489-2.082-2.073-3.226-.768-1.503-1.377-3.071-1.921-4.666-.041-.121-.078-.24-.16-.34-.012-.338-.172-.637-.253-.957-.265-1.043-.561-2.078-.844-3.115l-.009-.071c-.032-.476-.087-.947-.258-1.397-.142-.873-.281-1.746-.428-2.618-.182-1.079-.272-2.166-.327-3.258a53.468 53.468 0 01.069-6.758c.122-1.617.49-3.198.817-4.786.25-1.211.701-2.35 1.067-3.519.186-.596.539-1.138.78-1.719.475-1.147 1.066-2.231 1.657-3.32.388-.715.84-1.387 1.256-2.081.469-.783 1.035-1.509 1.565-2.255.391-.552.821-1.073 1.244-1.595.422-.521.864-1.034 1.314-1.536a44.458 44.458 0 012.295-2.398c.449-.431.914-.86 1.389-1.271a64.955 64.955 0 011.758-1.482c.809-.653 1.631-1.298 2.5-1.866.641-.419 1.28-.845 1.933-1.248a38.604 38.604 0 012.657-1.513 52.387 52.387 0 016.362-2.768c1.121-.392 2.221-.853 3.377-1.164.677-.182 1.371-.393 2.017-.711.217-.106.488-.101.734-.147.627-.09 1.22-.309 1.822-.494.016.009.028.005.037-.01a1.29 1.29 0 00.489-.139l.13-.018c.331-.066.661-.137.979-.258l.129-.016a.58.58 0 00.348-.055l.135-.013c.501-.037.974-.215 1.468-.291.043-.007.076-.076.114-.116.141.002.283.051.421-.013a.381.381 0 00.273-.055h.002a12.26 12.26 0 001.52-.275l.068-.007 1.178-.13a.061.061 0 00.065-.005c.362.008.717-.036 1.069-.121.015.012.028.011.038-.006a6.653 6.653 0 001.274-.132l.02.013.021-.011 2.239-.139 1.969-.015 2.417.135.068.004c.344.129.733.045 1.076.207-.043.132-.173.131-.233.211-1.092-.058-2.15.196-3.209.385-1.809.323-3.621.625-5.398 1.115-1.183.326-2.369.642-3.55.978-1.305.372-2.571.853-3.839 1.319a47.114 47.114 0 00-3.267 1.363c-.994.453-1.964.949-2.924 1.461-.835.445-1.654.927-2.459 1.435-.737.465-1.458.953-2.17 1.451-.955.668-1.856 1.409-2.736 2.177a33.635 33.635 0 00-2.321 2.24c-.403.427-.79.88-1.184 1.32-.418.467-.832.944-1.226 1.425-.433.529-.874 1.059-1.297 1.599a69.575 69.575 0 00-1.553 2.055 36.199 36.199 0 00-1.547 2.312c-.467.763-.924 1.535-1.316 2.333-.653 1.327-1.232 2.694-1.42 4.184-.069.548-.113 1.104.11 1.634.087.206.157.449.427.49.277.043.433-.159.539-.357.39-.726.857-1.41 1.158-2.184.078-.201.194-.389.304-.576.499-.849.914-1.743 1.399-2.601.422-.745.844-1.493 1.287-2.225a38.808 38.808 0 011.928-2.879c1.258-1.71 2.635-3.323 4.224-4.737a24.118 24.118 0 012.62-2.044 24.623 24.623 0 012.829-1.622c.778-.384 1.527-.836 2.357-1.116.346-.117.669-.301 1.003-.454 1.034-.472 2.106-.859 3.182-1.21 2.131-.696 4.308-1.218 6.564-1.313.126-.005.252-.001.423-.001-.115.171-.279.206-.414.242-.674.179-1.249.581-1.896.814-.823.297-1.563.762-2.357 1.119-.823.369-1.598.846-2.386 1.291-.858.484-1.73.951-2.553 1.49-.689.451-1.391.883-2.055 1.374-.626.463-1.263.912-1.875 1.393a43.52 43.52 0 00-1.864 1.568c-.447.393-.862.82-1.283 1.233a16.804 16.804 0 00-1.423 1.617c-.506.643-.948 1.323-1.41 1.992-.32.463-.541.98-.838 1.456-.469.749-.832 1.561-1.168 2.37-.928 2.235-1.623 4.539-1.715 6.983-.023.622.018 1.243.197 1.845.079.265.181.596.47.624.279.027.426-.296.528-.527.325-.733.64-1.473.915-2.227.454-1.24.98-2.45 1.527-3.649.442-.968.928-1.919 1.453-2.85 1.18-2.09 2.564-4.017 4.363-5.617a26.947 26.947 0 012.415-1.928c1.303-.917 2.649-1.771 4.095-2.458 1.239-.588 2.512-1.075 3.85-1.371.693-.153 1.408-.156 2.126-.126-.757.321-1.476.705-2.206 1.065-.923.455-1.811.974-2.665 1.56-.776.53-1.549 1.057-2.253 1.681z"></path></g><!----></svg>