<svg data-v-423bf9ae="" xmlns="http://www.w3.org/2000/svg" viewBox="0 0 172.66716972191853 60" class="font"><!----><!----><!----><g data-v-423bf9ae="" id="64eedd91-d272-4f33-add6-3f44eb3a66b1" fill="black" transform="matrix(4.611836967289338,0,0,4.611836967289338,0.4611830544085649,-33.80476366470129)"><path d="M3.22 11.49L3.10 11.60Q3.10 13.32 3.32 16.84L3.32 16.84L1.79 17.23L1.55 17.10Q1.65 14.40 1.65 11.61L1.65 11.61L1.52 11.49L-0.03 11.49L-0.10 11.38L0.04 10.97L0.20 10.88L1.54 10.88L1.65 10.73Q1.68 10.12 1.80 9.61Q1.93 9.11 2.10 8.78Q2.27 8.45 2.51 8.20Q2.75 7.95 2.97 7.82Q3.20 7.68 3.47 7.60Q3.73 7.53 3.92 7.51Q4.11 7.49 4.31 7.49L4.31 7.49Q4.45 7.49 4.62 7.52Q4.79 7.55 5.04 7.65Q5.29 7.75 5.54 7.99Q5.78 8.22 5.95 8.57L5.95 8.57L4.97 9.28L4.74 9.18Q4.74 8.72 4.49 8.39Q4.23 8.07 3.98 8.07L3.98 8.07Q3.75 8.07 3.51 8.36Q3.27 8.64 3.18 9.10L3.18 9.10Q3.10 9.49 3.10 10.73L3.10 10.73L3.22 10.86L4.98 10.86L5.07 11.00L4.94 11.36L4.77 11.49L3.22 11.49ZM7.62 7.33L7.80 7.50L7.68 13.86Q7.68 13.95 7.68 14.15Q7.67 14.35 7.67 14.46L7.67 14.46Q7.67 14.79 7.68 15.00Q7.69 15.22 7.72 15.42Q7.75 15.63 7.81 15.74Q7.87 15.86 7.96 15.93Q8.06 16.00 8.20 16.00L8.20 16.00Q8.67 16.00 9.24 15.37L9.24 15.37L9.41 15.37L9.63 15.59Q8.44 17.19 7.35 17.19L7.35 17.19Q7.16 17.19 7.00 17.15Q6.84 17.11 6.72 17.06Q6.60 17.00 6.51 16.90Q6.42 16.80 6.36 16.71Q6.30 16.63 6.26 16.47Q6.22 16.32 6.20 16.21Q6.18 16.11 6.17 15.93Q6.16 15.75 6.16 15.65Q6.16 15.54 6.16 15.35L6.16 15.35Q6.16 14.83 6.19 13.75Q6.21 12.66 6.21 12.08L6.21 12.08Q6.21 10.49 6.20 9.71L6.20 9.71Q6.17 8.63 6.13 8.50L6.13 8.50Q6.11 8.42 6.08 8.35Q6.05 8.29 5.99 8.24Q5.93 8.19 5.89 8.16Q5.84 8.12 5.75 8.10Q5.66 8.07 5.61 8.06Q5.56 8.05 5.43 8.04Q5.31 8.03 5.26 8.02Q5.21 8.02 5.07 8.01Q4.92 8.00 4.87 8.00L4.87 8.00L4.87 7.68L5.04 7.57L7.62 7.33ZM11.44 13.82L11.44 13.82Q11.44 14.13 11.48 14.48Q11.52 14.82 11.63 15.22Q11.75 15.63 11.93 15.94Q12.11 16.25 12.42 16.46Q12.73 16.67 13.12 16.67L13.12 16.67Q13.49 16.67 13.78 16.56Q14.08 16.45 14.27 16.29Q14.46 16.13 14.60 15.85Q14.74 15.57 14.81 15.31Q14.88 15.06 14.92 14.68Q14.96 14.29 14.97 14.02Q14.98 13.75 14.98 13.34L14.98 13.34Q14.98 12.86 14.90 12.44Q14.81 12.02 14.63 11.65Q14.44 11.28 14.10 11.06Q13.75 10.85 13.28 10.85L13.28 10.85Q12.86 10.85 12.53 11.04Q12.20 11.24 12.00 11.54Q11.80 11.84 11.67 12.25Q11.53 12.65 11.48 13.04Q11.44 13.42 11.44 13.82ZM9.63 13.83L9.63 13.83Q9.63 12.30 10.68 11.29Q11.74 10.29 13.36 10.29Q14.99 10.29 15.85 11.05L15.85 11.05Q16.78 11.91 16.78 13.25L16.78 13.25Q16.78 14.10 16.58 14.77Q16.39 15.45 16.04 15.91Q15.70 16.37 15.22 16.67Q14.74 16.97 14.19 17.11Q13.64 17.25 13.00 17.25L13.00 17.25Q11.38 17.25 10.64 16.57L10.64 16.57Q9.63 15.66 9.63 13.83ZM20.17 11.74L20.17 11.74L20.66 15.10L20.79 15.14Q22.55 12.50 23.50 10.61L23.50 10.61L24.25 10.19L24.44 10.21Q25.03 13.17 25.96 15.39L25.96 15.39Q26.03 15.57 26.09 15.57L26.09 15.57Q26.26 15.57 26.37 15.48L26.37 15.48Q27.05 14.94 27.51 14.26Q27.97 13.58 27.97 12.87L27.97 12.87Q27.97 12.17 27.31 11.17L27.31 11.17L27.31 10.99L28.46 10.14L28.68 10.17Q29.39 10.96 29.39 11.67L29.39 11.67Q29.39 12.01 29.28 12.39Q29.16 12.78 28.92 13.18Q28.68 13.59 28.44 13.94Q28.20 14.29 27.83 14.73Q27.45 15.17 27.20 15.45Q26.94 15.72 26.55 16.14L26.55 16.14Q26.52 16.17 26.37 16.33Q26.21 16.50 26.14 16.57Q26.07 16.65 25.91 16.79Q25.76 16.93 25.65 17.00Q25.55 17.07 25.41 17.13Q25.27 17.19 25.16 17.19L25.16 17.19Q24.84 17.19 24.63 16.49L24.63 16.49L23.32 12.39L23.17 12.39Q22.81 13.01 21.83 14.59Q20.85 16.18 20.36 17.06L20.36 17.06L19.50 17.27L19.34 17.19Q19.29 16.27 19.03 14.11L19.03 14.11Q18.86 12.74 18.74 12.30L18.74 12.30Q18.49 11.38 18.03 11.38L18.03 11.38Q17.47 11.38 17.01 11.66L17.01 11.66L16.82 11.39Q17.14 11.14 17.35 10.98Q17.57 10.83 17.89 10.63Q18.22 10.42 18.52 10.33Q18.83 10.23 19.11 10.23L19.11 10.23Q19.47 10.23 19.87 10.58L19.87 10.58Q19.91 10.62 19.93 10.66Q19.96 10.70 19.98 10.76Q20.01 10.83 20.03 10.88Q20.04 10.94 20.06 11.05Q20.08 11.16 20.09 11.23Q20.10 11.31 20.13 11.47Q20.15 11.63 20.17 11.74ZM37.08 10.21L37.34 10.27Q37.30 11.01 37.29 11.69Q37.28 12.37 37.28 15.17L37.28 15.17Q37.28 16.72 37.07 17.58L37.07 17.58Q36.89 18.40 36.25 19.03Q35.61 19.67 34.76 20.01Q33.92 20.34 33.05 20.34L33.05 20.34Q32.45 20.34 31.82 20.06Q31.19 19.78 30.82 19.35L30.82 19.35L31.66 18.24L31.95 18.24Q32.74 19.64 33.69 19.64L33.69 19.64Q34.26 19.64 34.66 19.39Q35.06 19.13 35.28 18.66Q35.49 18.18 35.59 17.62Q35.68 17.07 35.70 16.33L35.70 16.33L35.56 16.28Q34.93 16.69 34.21 16.97Q33.49 17.25 32.92 17.25L32.92 17.25Q32.66 17.25 32.45 17.20Q32.25 17.15 32.09 17.08Q31.94 17.01 31.82 16.87Q31.71 16.73 31.63 16.61Q31.55 16.50 31.50 16.29Q31.45 16.08 31.42 15.94Q31.39 15.80 31.38 15.53Q31.37 15.27 31.37 15.13Q31.36 14.98 31.36 14.70L31.36 14.70Q31.36 14.65 31.36 14.63L31.36 14.63Q31.36 14.27 31.40 13.55Q31.45 12.82 31.45 12.47L31.45 12.47Q31.45 12.32 31.45 12.25Q31.45 12.19 31.44 12.03Q31.42 11.88 31.40 11.80Q31.38 11.72 31.34 11.59Q31.29 11.47 31.23 11.41Q31.17 11.35 31.06 11.30Q30.96 11.25 30.83 11.25L30.83 11.25Q30.51 11.25 30.02 11.68L30.02 11.68L29.76 11.33Q31.02 10.25 32.06 10.25L32.06 10.25Q32.42 10.25 32.69 10.49L32.69 10.49Q32.82 10.61 32.88 10.86Q32.94 11.11 32.94 11.72L32.94 11.72Q32.94 12.13 32.91 12.93Q32.87 13.74 32.87 14.18L32.87 14.18Q32.87 15.33 33.13 15.78Q33.39 16.24 34.15 16.24L34.15 16.24Q34.52 16.24 34.99 16.03Q35.46 15.83 35.72 15.65L35.72 15.65Q35.81 14.51 35.81 13.07L35.81 13.07Q35.81 11.72 35.68 10.71L35.68 10.71L37.08 10.21Z"></path></g><!----><!----></svg>